{
	"asset":{
		"generator":"Khronos glTF Blender I/O v5.1.19",
		"version":"2.0"
	},
	"extensionsUsed":[
		"KHR_materials_transmission",
		"KHR_materials_emissive_strength",
		"KHR_materials_ior"
	],
	"scene":0,
	"scenes":[
		{
			"name":"Scene",
			"nodes":[
				0,
				1,
				2,
				3,
				4,
				5
			]
		}
	],
	"nodes":[
		{
			"mesh":0,
			"name":"CameraBody",
			"translation":[
				0,
				0.4000000059604645,
				0
			]
		},
		{
			"mesh":1,
			"name":"LensCasing",
			"translation":[
				0,
				0.8100000023841858,
				0
			]
		},
		{
			"mesh":2,
			"name":"GlowRing",
			"translation":[
				0,
				0.8999999761581421,
				0
			]
		},
		{
			"mesh":3,
			"name":"LensGlass",
			"scale":[
				1,
				0.4000000059604645,
				1
			],
			"translation":[
				0,
				0.8500000238418579,
				0
			]
		},
		{
			"mesh":4,
			"name":"StandArm",
			"rotation":[
				0.24740397930145264,
				0,
				0,
				0.9689124226570129
			],
			"translation":[
				0,
				0,
				0.4000000059604645
			]
		},
		{
			"mesh":5,
			"name":"StandBase",
			"translation":[
				0,
				-0.30000001192092896,
				0.6000000238418579
			]
		}
	],
	"materials":[
		{
			"doubleSided":true,
			"name":"SleekMetal.002",
			"pbrMetallicRoughness":{
				"baseColorFactor":[
					0.10000000149011612,
					0.10000000149011612,
					0.11999999731779099,
					1
				],
				"metallicFactor":0.949999988079071,
				"roughnessFactor":0.15000000596046448
			}
		},
		{
			"doubleSided":true,
			"emissiveFactor":[
				0,
				0.6000000238418579,
				1
			],
			"extensions":{
				"KHR_materials_emissive_strength":{
					"emissiveStrength":5
				}
			},
			"name":"BlueNeonGlow.002",
			"pbrMetallicRoughness":{
				"baseColorFactor":[
					0,
					0.5,
					1,
					1
				],
				"metallicFactor":0,
				"roughnessFactor":0.5
			}
		},
		{
			"doubleSided":true,
			"extensions":{
				"KHR_materials_transmission":{
					"transmissionFactor":0.949999988079071
				},
				"KHR_materials_ior":{
					"ior":1.4500000476837158
				}
			},
			"name":"ClearGlass.002",
			"pbrMetallicRoughness":{
				"baseColorFactor":[
					0.8999999761581421,
					0.949999988079071,
					1,
					1
				],
				"metallicFactor":0,
				"roughnessFactor":0.019999999552965164
			}
		}
	],
	"meshes":[
		{
			"name":"Cylinder.008",
			"primitives":[
				{
					"attributes":{
						"POSITION":0,
						"NORMAL":1,
						"TEXCOORD_0":2
					},
					"indices":3,
					"material":0
				}
			]
		},
		{
			"name":"Cylinder.009",
			"primitives":[
				{
					"attributes":{
						"POSITION":4,
						"NORMAL":5,
						"TEXCOORD_0":6
					},
					"indices":3,
					"material":0
				}
			]
		},
		{
			"name":"Torus.002",
			"primitives":[
				{
					"attributes":{
						"POSITION":7,
						"NORMAL":8,
						"TEXCOORD_0":9
					},
					"indices":10,
					"material":1
				}
			]
		},
		{
			"name":"Sphere.002",
			"primitives":[
				{
					"attributes":{
						"POSITION":11,
						"NORMAL":12,
						"TEXCOORD_0":13
					},
					"indices":14,
					"material":2
				}
			]
		},
		{
			"name":"Cylinder.010",
			"primitives":[
				{
					"attributes":{
						"POSITION":15,
						"NORMAL":16,
						"TEXCOORD_0":17
					},
					"indices":18,
					"material":0
				}
			]
		},
		{
			"name":"Cylinder.011",
			"primitives":[
				{
					"attributes":{
						"POSITION":19,
						"NORMAL":20,
						"TEXCOORD_0":21
					},
					"indices":3,
					"material":0
				}
			]
		}
	],
	"accessors":[
		{
			"bufferView":0,
			"componentType":5126,
			"count":258,
			"max":[
				0.6000000238418579,
				0.4000000059604645,
				0.6000000238418579
			],
			"min":[
				-0.6000000238418579,
				-0.4000000059604645,
				-0.6000000238418579
			],
			"type":"VEC3"
		},
		{
			"bufferView":1,
			"componentType":5126,
			"count":258,
			"type":"VEC3"
		},
		{
			"bufferView":2,
			"componentType":5126,
			"count":258,
			"type":"VEC2"
		},
		{
			"bufferView":3,
			"componentType":5123,
			"count":756,
			"type":"SCALAR"
		},
		{
			"bufferView":4,
			"componentType":5126,
			"count":258,
			"max":[
				0.5,
				0.10000000149011612,
				0.5
			],
			"min":[
				-0.5,
				-0.10000000149011612,
				-0.5
			],
			"type":"VEC3"
		},
		{
			"bufferView":5,
			"componentType":5126,
			"count":258,
			"type":"VEC3"
		},
		{
			"bufferView":6,
			"componentType":5126,
			"count":258,
			"type":"VEC2"
		},
		{
			"bufferView":7,
			"componentType":5126,
			"count":637,
			"max":[
				0.4599999785423279,
				0.03999999910593033,
				0.4599999785423279
			],
			"min":[
				-0.4599999785423279,
				-0.03999999910593033,
				-0.4599999785423279
			],
			"type":"VEC3"
		},
		{
			"bufferView":8,
			"componentType":5126,
			"count":637,
			"type":"VEC3"
		},
		{
			"bufferView":9,
			"componentType":5126,
			"count":637,
			"type":"VEC2"
		},
		{
			"bufferView":10,
			"componentType":5123,
			"count":3456,
			"type":"SCALAR"
		},
		{
			"bufferView":11,
			"componentType":5126,
			"count":2143,
			"max":[
				0.44999992847442627,
				0.44999998807907104,
				0.44999992847442627
			],
			"min":[
				-0.44999992847442627,
				-0.44999998807907104,
				-0.44999992847442627
			],
			"type":"VEC3"
		},
		{
			"bufferView":12,
			"componentType":5126,
			"count":2143,
			"type":"VEC3"
		},
		{
			"bufferView":13,
			"componentType":5126,
			"count":2143,
			"type":"VEC2"
		},
		{
			"bufferView":14,
			"componentType":5123,
			"count":11904,
			"type":"SCALAR"
		},
		{
			"bufferView":15,
			"componentType":5126,
			"count":130,
			"max":[
				0.10000000149011612,
				0.30000001192092896,
				0.10000000149011612
			],
			"min":[
				-0.10000000149011612,
				-0.30000001192092896,
				-0.10000000149011612
			],
			"type":"VEC3"
		},
		{
			"bufferView":16,
			"componentType":5126,
			"count":130,
			"type":"VEC3"
		},
		{
			"bufferView":17,
			"componentType":5126,
			"count":130,
			"type":"VEC2"
		},
		{
			"bufferView":18,
			"componentType":5123,
			"count":372,
			"type":"SCALAR"
		},
		{
			"bufferView":19,
			"componentType":5126,
			"count":258,
			"max":[
				0.800000011920929,
				0.05000000074505806,
				0.800000011920929
			],
			"min":[
				-0.800000011920929,
				-0.05000000074505806,
				-0.800000011920929
			],
			"type":"VEC3"
		},
		{
			"bufferView":20,
			"componentType":5126,
			"count":258,
			"type":"VEC3"
		},
		{
			"bufferView":21,
			"componentType":5126,
			"count":258,
			"type":"VEC2"
		}
	],
	"bufferViews":[
		{
			"buffer":0,
			"byteLength":3096,
			"byteOffset":0,
			"target":34962
		},
		{
			"buffer":0,
			"byteLength":3096,
			"byteOffset":3096,
			"target":34962
		},
		{
			"buffer":0,
			"byteLength":2064,
			"byteOffset":6192,
			"target":34962
		},
		{
			"buffer":0,
			"byteLength":1512,
			"byteOffset":8256,
			"target":34963
		},
		{
			"buffer":0,
			"byteLength":3096,
			"byteOffset":9768,
			"target":34962
		},
		{
			"buffer":0,
			"byteLength":3096,
			"byteOffset":12864,
			"target":34962
		},
		{
			"buffer":0,
			"byteLength":2064,
			"byteOffset":15960,
			"target":34962
		},
		{
			"buffer":0,
			"byteLength":7644,
			"byteOffset":18024,
			"target":34962
		},
		{
			"buffer":0,
			"byteLength":7644,
			"byteOffset":25668,
			"target":34962
		},
		{
			"buffer":0,
			"byteLength":5096,
			"byteOffset":33312,
			"target":34962
		},
		{
			"buffer":0,
			"byteLength":6912,
			"byteOffset":38408,
			"target":34963
		},
		{
			"buffer":0,
			"byteLength":25716,
			"byteOffset":45320,
			"target":34962
		},
		{
			"buffer":0,
			"byteLength":25716,
			"byteOffset":71036,
			"target":34962
		},
		{
			"buffer":0,
			"byteLength":17144,
			"byteOffset":96752,
			"target":34962
		},
		{
			"buffer":0,
			"byteLength":23808,
			"byteOffset":113896,
			"target":34963
		},
		{
			"buffer":0,
			"byteLength":1560,
			"byteOffset":137704,
			"target":34962
		},
		{
			"buffer":0,
			"byteLength":1560,
			"byteOffset":139264,
			"target":34962
		},
		{
			"buffer":0,
			"byteLength":1040,
			"byteOffset":140824,
			"target":34962
		},
		{
			"buffer":0,
			"byteLength":744,
			"byteOffset":141864,
			"target":34963
		},
		{
			"buffer":0,
			"byteLength":3096,
			"byteOffset":142608,
			"target":34962
		},
		{
			"buffer":0,
			"byteLength":3096,
			"byteOffset":145704,
			"target":34962
		},
		{
			"buffer":0,
			"byteLength":2064,
			"byteOffset":148800,
			"target":34962
		}
	],
	"buffers":[
		{
			"byteLength":150864,
			"uri":"smart_city_camera.bin"
		}
	]
}
